<?xml version="1.0" encoding="UTF-8"?>
<svg id="Layer_2" data-name="Layer 2" xmlns="http://www.w3.org/2000/svg" viewBox="0 0 492.67 475.71">
  <defs>
    <style>
      .cls-1 {
        letter-spacing: 0em;
      }

      .cls-1, .cls-2, .cls-3 {
        fill: #f4f4f4;
      }

      .cls-4, .cls-3 {
        font-family: PODIUMSoft-UltraExpanded, 'PODIUM Soft';
        font-size: 35.4px;
        font-variation-settings: 'wdth' 200;
      }

      .cls-5 {
        fill: #ff4400;
      }
    </style>
  </defs>
  <g id="Layer_7" data-name="Layer 7">
    <g>
      <text class="cls-3" transform="translate(0 298.66)"><tspan x="0" y="0">&lt;</tspan></text>
      <text class="cls-4" transform="translate(425.46 298.66)"><tspan class="cls-5" x="0" y="0">/</tspan><tspan class="cls-1" x="37.12" y="0">&gt;</tspan></text>
      <path class="cls-2" d="M304.05,126.38c7.01-11.17,11.47-20.55-7.33-13.78-29.12,10.59-56.97,24.78-82.47,42.37-14.11,9.8-27.53,20.63-40.06,32.36-7.25,7.12-14.89,14.37-20.42,22.84-2.54,4.01-4.9,8.63-4.64,13.45.34,4.7,3.86,8.29,8.4,9.28,9.82,2.4,20.38.67,30.43.63,20.77-.63,41.56-.66,62.3,1.01,2.54.21,7.81.7,10.36.99,12.4,1.48,37.88,3.4,43.09,16.63,2.32,7-2.75,13.57-7.3,18.38-6.67,6.31-14.68,11.03-22.35,15.84-31.78,19.64-91.12,56.14-123.55,75.98-43.03,25.64-84.93,53.29-129.24,76.71-4.65,2.24-15.22,8.35-17.28,1.48-1.13-7.26,9.93-20.99,13.85-27.3,4.39-6.68,10.33-14.67,15.04-21.18,3.69-4.69,8.98-11.83,12.78-16.39,4.69-5.74,11.8-14.29,16.83-19.8,29.79-33.69,64.52-63.36,102.18-87.93,95.95-61.71,208.31-96.72,313.31-135.94,0,0-19.23,7.72-19.23,7.72l-19.28,7.6c-83.06,32.91-168.8,62.71-246.14,107.87-38.56,22.5-74.82,49.47-106.58,80.87-22.01,21.54-42.15,45.67-60.12,70.68-3.86,5.14-8.12,11.73-11.78,16.96-2.79,4.08-5.64,8.53-7.29,13.18-.24.74-.43,1.49-.49,2.15-.07.68.1,1.12.2,1.22.09.13.55.3,1.22.29,4.03-.33,7.76-2.46,11.41-4.2,30.48-15.18,64.66-36.62,94.34-53.9,33.96-20.22,72.73-43.69,106.19-64.61,11.52-7.21,41.52-25.98,52.6-33.11,7.23-4.68,14.55-9.16,20.84-14.98,1.19-1.12,2.35-2.42,3.35-3.71,18-22.44-22.67-26.08-36.93-27.33-23.98-2.35-48.14-2.35-72.22-1.61-6.18.24-14.68.6-20.81.5-7-.26-16.11-1.09-19.81-8.13-8.02-15.08,14.98-34.73,24.57-44.41,22.84-21.29,48.82-39.17,76.55-53.38,12.32-6.34,25.02-11.91,38-16.72,6.58-2.17,13.02-5.35,20.06-5.59,9.73.45.2,13.33-2.24,17.21-.14.21-.48,0-.33-.22h0Z"/>
      <path class="cls-2" d="M.96,216.17c7.17-4.79,14.06-9.99,20.97-15.16,60.49-46,124.13-96.67,186.9-139.34,21.42-14.59,43.11-28.84,65.54-41.84,7.49-4.32,15.09-8.45,22.93-12.15C305.22,4.14,313.28.3,322.16,0c12.55-.01,9.43,13.33,6.43,21.25-25.56,54.47-53.24,107.98-77.59,163-8.05,18.33-15.58,36.87-22.46,55.66-20.78,56.31-33.19,115.66-35.35,175.7-.61,14.92-.66,30.14-.26,45.07,0,0,.53,15.03.53,15.03-4.35-38.33-2.88-80.81,2.02-120.29,9.87-80.25,41.86-155.44,77.58-227.27,17.7-35.9,36.48-71.85,54.02-107.47,1.45-3.93,2.88-8.07,2.77-12.26-.5-14.49-24.86-2.72-32.01.39-46.37,23.08-87.45,55.33-129.33,85.52-20.76,15.3-62.53,46.25-83.14,61.77-14.17,10.49-48.55,36.12-62.66,45.98-7.06,4.97-14.13,9.96-21.52,14.45-.09.06-.22.03-.27-.07-.06-.09-.03-.21.06-.27h0Z"/>
    </g>
  </g>
</svg>