<svg width="50" height="50" viewBox="0 0 50 50" fill="none" xmlns="http://www.w3.org/2000/svg">
<path d="M25.0024 50.0024C38.8095 50.0024 50.0024 38.8095 50.0024 25.0024C50.0024 11.1953 38.8095 0.00244141 25.0024 0.00244141C11.1953 0.00244141 0.00244141 11.1953 0.00244141 25.0024C0.00244141 38.8095 11.1953 50.0024 25.0024 50.0024Z" fill="#012169"/>
<path d="M44.2673 9.0708L25.004 20.6291L5.7407 9.0708C4.13853 11.0082 2.8383 13.1766 1.88403 15.5025L17.7174 25.0025L1.88403 34.5025C2.83757 36.8289 4.13724 38.9978 5.73903 40.9358L25.004 29.3758L44.269 40.9341C45.8708 38.9961 47.1705 36.8272 48.124 34.5008L32.2907 25.0008L48.124 15.5008C47.1696 13.1755 45.8694 11.0077 44.2673 9.0708Z" fill="white"/>
<path d="M4.98145 39.9309L27.4298 26.4609L46.4164 37.8525C46.847 37.1366 47.2413 36.3996 47.5981 35.6442L27.4314 23.5442L46.4164 12.1542C45.9842 11.4364 45.5192 10.7431 45.0214 10.0742L22.5714 23.5442L3.58478 12.1542C3.15701 12.8676 2.76367 13.6031 2.40479 14.3609L22.5714 26.4609L3.58478 37.8525C4.01533 38.5682 4.48147 39.2619 4.98145 39.9309Z" fill="#C8102E"/>
<path d="M31.2524 0.82245C27.1575 -0.270895 22.8474 -0.270895 18.7524 0.82245V18.7524H0.82245C-0.270895 22.8474 -0.270895 27.1575 0.82245 31.2524H18.7524V49.1824C22.8474 50.2758 27.1575 50.2758 31.2524 49.1824V31.2524H49.1824C50.2758 27.1575 50.2758 22.8474 49.1824 18.7524H31.2524V0.82245Z" fill="white"/>
<path d="M28.7524 0.314108C27.512 0.11636 26.2585 0.0121777 25.0024 0.00244141C23.7464 0.0121777 22.4928 0.11636 21.2524 0.314108V21.2524H0.314108C0.11636 22.4928 0.0121777 23.7464 0.00244141 25.0024C0.0121777 26.2585 0.11636 27.512 0.314108 28.7524H21.2524V49.6908C22.4928 49.8885 23.7464 49.9927 25.0024 50.0024C26.2585 49.9927 27.512 49.8885 28.7524 49.6908V28.7524H49.6908C49.8885 27.512 49.9927 26.2585 50.0024 25.0024C49.9927 23.7464 49.8885 22.4928 49.6908 21.2524H28.7524V0.314108Z" fill="#C8102E"/>
</svg>
